<svg width="30" height="30" viewBox="0 0 30 30" fill="none" xmlns="http://www.w3.org/2000/svg">
<path d="M11.25 26.6667C12.4006 26.6667 13.3334 25.7339 13.3334 24.5833C13.3334 23.4327 12.4006 22.5 11.25 22.5C10.0994 22.5 9.16669 23.4327 9.16669 24.5833C9.16669 25.7339 10.0994 26.6667 11.25 26.6667Z" fill="white"/>
<path d="M22.0833 26.6667C23.2339 26.6667 24.1667 25.7339 24.1667 24.5833C24.1667 23.4327 23.2339 22.5 22.0833 22.5C20.9327 22.5 20 23.4327 20 24.5833C20 25.7339 20.9327 26.6667 22.0833 26.6667Z" fill="white"/>
<path d="M27.5833 5.325C27.5057 5.22416 27.406 5.14243 27.2919 5.08609C27.1777 5.02976 27.0522 5.00031 26.925 5H7.67497L7.29997 3.80833C7.25878 3.68038 7.18724 3.5643 7.09147 3.46998C6.9957 3.37566 6.87854 3.3059 6.74997 3.26667L3.3333 2.21667C3.22825 2.18438 3.11786 2.17311 3.00844 2.18349C2.89903 2.19387 2.79273 2.22569 2.69561 2.27715C2.49948 2.38108 2.35267 2.55866 2.28747 2.77083C2.22227 2.98301 2.24403 3.21239 2.34795 3.40852C2.45188 3.60465 2.62946 3.75147 2.84164 3.81667L5.8333 4.73333L9.64997 16.7917L8.29164 17.9083L8.1833 18.0167C7.84738 18.4056 7.65707 18.8992 7.64491 19.413C7.63274 19.9268 7.7995 20.4289 8.11664 20.8333C8.34377 21.1096 8.63239 21.3288 8.95942 21.4735C9.28644 21.6182 9.6428 21.6843 9.99997 21.6667H23.9083C24.1293 21.6667 24.3413 21.5789 24.4976 21.4226C24.6538 21.2663 24.7416 21.0543 24.7416 20.8333C24.7416 20.6123 24.6538 20.4004 24.4976 20.2441C24.3413 20.0878 24.1293 20 23.9083 20H9.86664C9.77068 19.9967 9.67718 19.9688 9.59518 19.9188C9.51319 19.8688 9.44546 19.7986 9.39855 19.7148C9.35163 19.631 9.32712 19.5366 9.32737 19.4405C9.32761 19.3445 9.35262 19.2502 9.39997 19.1667L11.4083 17.5H24.2666C24.457 17.5055 24.6435 17.4457 24.7951 17.3305C24.9468 17.2153 25.0543 17.0516 25.1 16.8667L27.7666 6.03333C27.792 5.9091 27.7886 5.78072 27.7569 5.65797C27.7251 5.53522 27.6657 5.42134 27.5833 5.325Z" fill="white"/>
</svg>
